<?xml version="1.0" encoding="UTF-8" standalone="no"?>
<!-- Created with Inkscape (http://www.inkscape.org/) -->

<svg
   width="1600"
   height="500"
   viewBox="0 0 1600 500"
   version="1.1"
   id="svg5"
   xml:space="preserve"
   inkscape:version="1.2.1 (9c6d41e410, 2022-07-14, custom)"
   sodipodi:docname="logo.svg"
   inkscape:export-filename="logo.png"
   inkscape:export-xdpi="96"
   inkscape:export-ydpi="96"
   xmlns:inkscape="http://www.inkscape.org/namespaces/inkscape"
   xmlns:sodipodi="http://sodipodi.sourceforge.net/DTD/sodipodi-0.dtd"
   xmlns="http://www.w3.org/2000/svg"
   xmlns:svg="http://www.w3.org/2000/svg"><sodipodi:namedview
     id="namedview7"
     pagecolor="#ffffff"
     bordercolor="#999999"
     borderopacity="1"
     inkscape:showpageshadow="0"
     inkscape:pageopacity="0"
     inkscape:pagecheckerboard="0"
     inkscape:deskcolor="#d1d1d1"
     inkscape:document-units="mm"
     showgrid="false"
     inkscape:zoom="0.700797"
     inkscape:cx="674.94581"
     inkscape:cy="318.9226"
     inkscape:window-width="1920"
     inkscape:window-height="1017"
     inkscape:window-x="1"
     inkscape:window-y="1080"
     inkscape:window-maximized="1"
     inkscape:current-layer="title"
     showguides="true" /><defs
     id="defs2"><inkscape:path-effect
       effect="fillet_chamfer"
       id="path-effect6653"
       is_visible="true"
       lpeversion="1"
       nodesatellites_param="IC,0,0,1,0,0.37452344,0,1 @ IC,0,0,1,0,0.026458333,0,1 @ IC,0,0,1,0,0.026458333,0,1 @ IC,0,0,1,0,0.026458333,0,1"
       unit="px"
       method="auto"
       mode="F"
       radius="0.1"
       chamfer_steps="1"
       flexible="false"
       use_knot_distance="true"
       apply_no_radius="true"
       apply_with_radius="true"
       only_selected="true"
       hide_knots="false" /><inkscape:path-effect
       effect="fillet_chamfer"
       id="path-effect6604"
       is_visible="true"
       lpeversion="1"
       nodesatellites_param="F,0,0,1,0,0,0,1 @ F,0,0,1,0,0,0,1 @ F,0,0,1,0,0,0,1 @ F,0,0,1,0,0,0,1"
       unit="px"
       method="auto"
       mode="F"
       radius="5"
       chamfer_steps="1"
       flexible="false"
       use_knot_distance="true"
       apply_no_radius="true"
       apply_with_radius="true"
       only_selected="false"
       hide_knots="false" /><pattern
       patternUnits="userSpaceOnUse"
       width="126.77885"
       height="75"
       id="pattern18077"><path
         d="m 28.84615,28.846154 c 0,-6.375 -5.16346,-11.538462 -11.53846,-11.538462 C 7.74808,17.307692 0,9.559615 0,0 h 5.76923 c 0,6.375 5.16346,11.538462 11.53846,11.538462 9.55962,0 17.30769,7.748076 17.30769,17.307692 0,6.375 5.16347,11.538461 11.53847,11.538461 9.55961,0 17.30769,7.748077 17.30769,17.307693 0,6.375 5.16346,11.538461 11.53846,11.538461 V 75 c -9.55962,0 -17.30769,-7.748077 -17.30769,-17.307692 0,-6.375 -5.16346,-11.538462 -11.53846,-11.538462 -9.55962,0 -17.3077,-7.748077 -17.3077,-17.307692 z M 102.3,23.221154 126.77885,47.7 122.7,51.778846 98.22115,27.3 Z"
         id="path18015"
         style="display:inline;fill:#303f55;fill-opacity:1;fill-rule:evenodd;stroke-width:2.88462" /></pattern><pattern
       patternUnits="userSpaceOnUse"
       width="126.77885"
       height="75"
       id="pattern19552"><path
         d="m 28.84615,28.846154 c 0,-6.375 -5.16346,-11.538462 -11.53846,-11.538462 C 7.74808,17.307692 0,9.559615 0,0 h 5.76923 c 0,6.375 5.16346,11.538462 11.53846,11.538462 9.55962,0 17.30769,7.748076 17.30769,17.307692 0,6.375 5.16347,11.538461 11.53847,11.538461 9.55961,0 17.30769,7.748077 17.30769,17.307693 0,6.375 5.16346,11.538461 11.53846,11.538461 V 75 c -9.55962,0 -17.30769,-7.748077 -17.30769,-17.307692 0,-6.375 -5.16346,-11.538462 -11.53846,-11.538462 -9.55962,0 -17.3077,-7.748077 -17.3077,-17.307692 z M 102.3,23.221154 126.77885,47.7 122.7,51.778846 98.22115,27.3 Z"
         id="path19550"
         style="display:inline;fill:#2c3a4e;fill-opacity:1;fill-rule:evenodd;stroke-width:2.88462" /></pattern></defs><g
     inkscape:label="Calque 1"
     inkscape:groupmode="layer"
     id="layer1"><rect
       style="display:inline;fill:#222935;fill-opacity:1;stroke:none;stroke-width:1.11997;stroke-dasharray:none"
       id="rect16865-2-5"
       width="895.29572"
       height="279.77991"
       x="583.64734"
       y="-102.423"
       transform="matrix(1.787119,0,0,1.787119,-1043.0472,183.04209)"
       inkscape:label="background" /><rect
       style="display:inline;fill:url(#pattern19552);fill-opacity:1.0;stroke:none;stroke-width:2.00152;stroke-dasharray:none"
       id="rect16865-2-5-6"
       width="1600"
       height="500"
       x="0"
       y="0"
       inkscape:label="patterns" /><rect
       style="display:none;fill:url(#pattern19552);stroke:none"
       width="126.77885"
       height="75"
       x="0"
       y="0"
       id="rect19555" /><g
       id="title"
       style="font-style:normal;font-weight:300;font-size:72px;line-height:1;font-family:'Montserrat Light Alt1';font-variant-ligatures:none;text-align:center;text-anchor:middle"
       fill="#ffffff"
       transform="matrix(1.4757198,0,0,1.4757198,44.765128,-440.9175)"><path
         id="path51149"
         style="font-style:normal;font-weight:300;font-size:72px;line-height:1;font-family:'Montserrat Light Alt1';font-variant-ligatures:none;text-align:center;text-anchor:middle;fill:#245b74;fill-opacity:1"
         d="m 247.33869,-24.984 c 0,5.784 0,11.568 0,17.352 -3.816,3.096 -8.568,4.608 -14.328,4.608 -4.32,0 -8.208,-0.936 -11.664,-2.88 -3.456,-1.944 -6.192,-4.608 -8.208,-7.992 -2.016,-3.384 -2.952,-7.128 -2.952,-11.304 0,-4.176 0.936,-7.92 2.952,-11.304 1.944,-3.384 4.68,-6.048 8.136,-7.992 3.456,-1.872 7.416,-2.88 11.736,-2.88 3.168,0 6.048,0.504 8.64,1.44 2.592,0.936 4.968,2.448 7.128,4.536 0.768,-0.816 1.536,-1.632 2.304,-2.448 -2.232,-2.232 -4.896,-3.96 -7.992,-5.112 -3.096,-1.152 -6.48,-1.8 -10.152,-1.8 -5.04,0 -9.576,1.152 -13.608,3.312 -4.032,2.232 -7.128,5.256 -9.432,9.144 -2.304,3.888 -3.384,8.28 -3.384,13.104 0,4.896 1.08,9.216 3.384,13.104 2.304,3.888 5.4,6.984 9.432,9.144 4.032,2.232 8.496,3.312 13.536,3.312 3.456,0 6.768,-0.504 9.936,-1.656 3.168,-1.08 5.832,-2.664 8.064,-4.824 0,-6.288 0,-12.576 0,-18.864 -1.176,0 -2.352,0 -3.528,0 z"
         stroke-width="0px"
         stroke-linejoin="miter"
         stroke-miterlimit="2"
         fill="#dcd7ec"
         stroke="#dcd7ec"
         transform="matrix(0.77,0,0,0.77,96.869515,487.404)"
         sodipodi:nodetypes="ccssssccssccsscssscscccc" /><path
         id="path51151"
         style="font-style:normal;font-weight:300;font-size:72px;line-height:1;font-family:'Montserrat Light Alt1';font-variant-ligatures:none;text-align:center;text-anchor:middle;fill:#30637a;fill-opacity:1"
         d="m 293.59419,-17.64 c 3.744,-1.08 6.696,-2.952 8.712,-5.688 2.016,-2.736 3.096,-6.048 3.096,-10.08 0,-5.256 -1.8,-9.432 -5.4,-12.456 -3.6,-3.024 -8.568,-4.536 -14.904,-4.536 h -18.072 v 3.312 h 18.072 c 5.328,0 9.432,1.224 12.312,3.6 2.808,2.376 4.248,5.76 4.248,10.08 0,4.392 -1.44,7.776 -4.248,10.152 -2.88,2.376 -6.984,3.528 -12.312,3.528 h -18.072 V 0 h 3.672 v -16.488 h 14.4 c 1.44,0 3.096,-0.072 4.896,-0.36 L 302.01819,0 h 4.176 z"
         stroke-width="0px"
         stroke-linejoin="miter"
         stroke-miterlimit="2"
         fill="#dcd7ec"
         stroke="#dcd7ec"
         transform="matrix(0.77,0,0,0.77,100.33451,487.404)" /><path
         id="path51153"
         style="font-style:normal;font-weight:300;font-size:72px;line-height:1;font-family:'Montserrat Light Alt1';font-variant-ligatures:none;text-align:center;text-anchor:middle;fill:#3c6b81;fill-opacity:1"
         d="M 318.91681,-50.4 V 0 h 3.672 v -50.4 z"
         stroke-width="0px"
         stroke-linejoin="miter"
         stroke-miterlimit="2"
         fill="#dcd7ec"
         stroke="#dcd7ec"
         transform="matrix(0.77,0,0,0.77,103.79951,487.404)" /><path
         id="path51155"
         style="font-style:normal;font-weight:300;font-size:72px;line-height:1;font-family:'Montserrat Light Alt1';font-variant-ligatures:none;text-align:center;text-anchor:middle;fill:#487387;fill-opacity:1"
         d="m 381.19119,-50.4 h -3.672 v 43.776 l -34.272,-43.776 h -3.096 V 0 h 3.672 V -43.776 L 378.16719,0 h 3.024 z"
         stroke-width="0px"
         stroke-linejoin="miter"
         stroke-miterlimit="2"
         fill="#dcd7ec"
         stroke="#dcd7ec"
         transform="matrix(0.77,0,0,0.77,107.26451,487.404)" /><path
         id="path51157"
         style="font-style:normal;font-weight:300;font-size:72px;line-height:1;font-family:'Montserrat Light Alt1';font-variant-ligatures:none;text-align:center;text-anchor:middle;fill:#547b8d;fill-opacity:1"
         d="m 442.13581,-38.16 c -2.304,-3.816 -5.472,-6.768 -9.504,-9 -4.032,-2.16 -8.712,-3.24 -13.896,-3.24 h -19.944 v 3.312 h 19.656 c 4.608,0 8.712,0.936 12.312,2.808 3.528,1.872 6.264,4.464 8.208,7.704 1.872,3.312 2.88,7.128 2.88,11.376 0,4.32 -1.008,8.064 -2.88,11.376 -1.944,3.312 -4.68,5.904 -8.208,7.776 -3.6,1.872 -7.704,2.736 -12.312,2.736 h -15.984 V -25.2 h -3.672 V 0 h 19.944 c 5.184,0 9.864,-1.08 13.896,-3.24 4.032,-2.16 7.2,-5.112 9.504,-8.928 2.232,-3.816 3.384,-8.136 3.384,-13.032 0,-4.824 -1.152,-9.144 -3.384,-12.96 z"
         stroke-width="0px"
         stroke-linejoin="miter"
         stroke-miterlimit="2"
         fill="#dcd7ec"
         stroke="#dcd7ec"
         transform="matrix(0.77,0,0,0.77,110.72951,487.404)" /><path
         id="path51159"
         style="font-style:normal;font-weight:300;font-size:72px;line-height:1;font-family:'Montserrat Light Alt1';font-variant-ligatures:none;text-align:center;text-anchor:middle;fill:#608394;fill-opacity:1"
         d="m 460.94019,-1.512 c 3.312,1.296 6.84,1.872 10.584,1.872 3.96,0 7.344,-0.576 10.08,-1.8 2.736,-1.152 4.752,-2.808 6.048,-4.824 1.296,-2.016 2.016,-4.248 2.016,-6.696 0,-2.952 -0.792,-5.328 -2.376,-7.056 -1.584,-1.728 -3.456,-3.096 -5.616,-3.96 -2.232,-0.864 -5.184,-1.728 -8.856,-2.664 -3.312,-0.792 -5.976,-1.584 -7.848,-2.304 -1.944,-0.72 -3.528,-1.728 -4.824,-3.096 -1.296,-1.296 -1.944,-3.096 -1.944,-5.4 0,-2.952 1.152,-5.4 3.6,-7.272 2.376,-1.872 5.904,-2.808 10.584,-2.808 2.304,0 4.68,0.36 7.128,1.08 2.448,0.72 4.68,1.8 6.696,3.168 l 1.368,-2.952 c -2.016,-1.368 -4.32,-2.448 -6.984,-3.312 -2.736,-0.792 -5.472,-1.224 -8.208,-1.224 -4.032,0 -7.344,0.648 -10.008,1.8 -2.664,1.224 -4.608,2.88 -5.904,4.896 -1.296,2.016 -1.944,4.248 -1.944,6.696 0,3.024 0.72,5.472 2.304,7.272 1.584,1.8 3.456,3.096 5.688,3.96 2.232,0.864 5.184,1.8 8.928,2.664 3.24,0.792 5.832,1.512 7.776,2.232 1.872,0.72 3.528,1.8 4.824,3.096 1.296,1.368 1.944,3.168 1.944,5.4 0,2.952 -1.224,5.328 -3.672,7.128 -2.448,1.872 -6.12,2.736 -10.872,2.736 -3.312,0 -6.48,-0.576 -9.504,-1.728 -3.024,-1.152 -5.4,-2.736 -7.128,-4.608 l -1.656,2.736 c 1.872,2.016 4.464,3.672 7.776,4.968 z"
         stroke-width="0px"
         stroke-linejoin="miter"
         stroke-miterlimit="2"
         fill="#dcd7ec"
         stroke="#dcd7ec"
         transform="matrix(0.77,0,0,0.77,114.19451,487.404)" /><path
         id="path51161"
         style="font-style:normal;font-weight:300;font-size:72px;line-height:1;font-family:'Montserrat Light Alt1';font-variant-ligatures:none;text-align:center;text-anchor:middle;fill:#6d8c9a;fill-opacity:1"
         d="M 511.09606,-47.088 V 0 h 3.672 v -47.088 h 18.144 V -50.4 h -39.96 v 3.312 z"
         stroke-width="0px"
         stroke-linejoin="miter"
         stroke-miterlimit="2"
         fill="#dcd7ec"
         stroke="#dcd7ec"
         transform="matrix(0.77,0,0,0.77,117.65951,487.404)" /><path
         id="path51163"
         style="font-style:normal;font-weight:300;font-size:72px;line-height:1;font-family:'Montserrat Light Alt1';font-variant-ligatures:none;text-align:center;text-anchor:middle;display:none;fill:#7994a0;fill-opacity:1"
         d="m 549.23694,-2.952 c 3.96,2.232 8.424,3.312 13.392,3.312 4.896,0 9.36,-1.08 13.392,-3.312 3.96,-2.16 7.056,-5.256 9.36,-9.144 2.304,-3.888 3.456,-8.208 3.456,-13.104 0,-4.824 -1.152,-9.216 -3.456,-13.104 -2.304,-3.888 -5.4,-6.912 -9.36,-9.144 -4.032,-2.16 -8.496,-3.312 -13.392,-3.312 -4.968,0 -9.432,1.152 -13.392,3.384 -4.032,2.232 -7.128,5.256 -9.432,9.144 -2.304,3.888 -3.384,8.28 -3.384,13.032 0,4.824 1.08,9.144 3.384,13.032 2.304,3.888 5.4,6.984 9.432,9.216 z m 24.84,-2.952 c -3.456,1.944 -7.272,2.88 -11.448,2.88 -4.248,0 -8.064,-0.936 -11.52,-2.88 -3.456,-1.872 -6.12,-4.536 -8.064,-7.92 -2.016,-3.384 -2.952,-7.2 -2.952,-11.376 0,-4.176 0.936,-7.92 2.952,-11.304 1.944,-3.384 4.608,-6.048 8.064,-7.992 3.456,-1.872 7.272,-2.88 11.52,-2.88 4.176,0 7.992,1.008 11.448,2.88 3.384,1.944 6.048,4.608 8.064,7.992 1.944,3.384 2.952,7.128 2.952,11.304 0,4.176 -1.008,7.992 -2.952,11.376 -2.016,3.384 -4.68,6.048 -8.064,7.92 z"
         stroke-width="0px"
         stroke-linejoin="miter"
         stroke-miterlimit="2"
         fill="#dcd7ec"
         stroke="#dcd7ec"
         transform="matrix(0.77,0,0,0.77,121.12451,487.404)" /><path
         id="path51165"
         style="font-style:normal;font-weight:300;font-size:72px;line-height:1;font-family:'Montserrat Light Alt1';font-variant-ligatures:none;text-align:center;text-anchor:middle;fill:#859ca7;fill-opacity:1"
         d="m 642.61306,-50.4 h -3.672 v 43.776 l -34.272,-43.776 h -3.096 V 0 h 3.672 V -43.776 L 639.58906,0 h 3.024 z"
         stroke-width="0px"
         stroke-linejoin="miter"
         stroke-miterlimit="2"
         fill="#dcd7ec"
         stroke="#dcd7ec"
         transform="matrix(0.77,0,0,0.77,124.58951,487.404)" /><path
         id="path51167"
         style="font-style:normal;font-weight:300;font-size:72px;line-height:1;font-family:'Montserrat Light Alt1';font-variant-ligatures:none;text-align:center;text-anchor:middle;fill:#91a4ad;fill-opacity:1"
         d="m 692.82969,-27.216 h -32.616 v 3.24 h 32.616 z m 0,-23.184 h -32.616 v 3.312 h 32.616 z m -32.616,47.088 V 0 h 32.616 v -3.312 z"
         stroke-width="0px"
         stroke-linejoin="miter"
         stroke-miterlimit="2"
         fill="#dcd7ec"
         stroke="#dcd7ec"
         transform="matrix(0.77,0,0,0.77,128.05452,487.404)" /><path
         id="path51169"
         style="font-style:normal;font-weight:300;font-size:72px;line-height:1;font-family:'Montserrat Light Alt1';font-variant-ligatures:none;text-align:center;text-anchor:middle;fill:#9dacb3;fill-opacity:1"
         d="m 702.72181,-20.952 v 3.24 h 18.504 v -3.24 z"
         stroke-width="0px"
         stroke-linejoin="miter"
         stroke-miterlimit="2"
         fill="#dcd7ec"
         stroke="#dcd7ec"
         transform="matrix(0.77,0,0,0.77,131.51952,487.404)" /><path
         id="path51171"
         style="font-style:normal;font-weight:300;font-size:72px;line-height:1;font-family:'Montserrat Light Alt1';font-variant-ligatures:none;text-align:center;text-anchor:middle;fill:#a9b4ba;fill-opacity:1"
         d="m 761.03169,-17.64 c 3.744,-1.08 6.696,-2.952 8.712,-5.688 2.016,-2.736 3.096,-6.048 3.096,-10.08 0,-5.256 -1.8,-9.432 -5.4,-12.456 -3.6,-3.024 -8.568,-4.536 -14.904,-4.536 h -18.072 v 3.312 h 18.072 c 5.328,0 9.432,1.224 12.312,3.6 2.808,2.376 4.248,5.76 4.248,10.08 0,4.392 -1.44,7.776 -4.248,10.152 -2.88,2.376 -6.984,3.528 -12.312,3.528 h -18.072 V 0 h 3.672 v -16.488 h 14.4 c 1.44,0 3.096,-0.072 4.896,-0.36 L 769.45569,0 h 4.176 z"
         stroke-width="0px"
         stroke-linejoin="miter"
         stroke-miterlimit="2"
         fill="#dcd7ec"
         stroke="#dcd7ec"
         transform="matrix(0.77,0,0,0.77,134.98452,487.404)" /><path
         id="path51173"
         style="font-style:normal;font-weight:300;font-size:72px;line-height:1;font-family:'Montserrat Light Alt1';font-variant-ligatures:none;text-align:center;text-anchor:middle;fill:#b5bcc0;fill-opacity:1"
         d="m 789.01831,-1.512 c 3.312,1.296 6.84,1.872 10.584,1.872 3.96,0 7.344,-0.576 10.08,-1.8 2.736,-1.152 4.752,-2.808 6.048,-4.824 1.296,-2.016 2.016,-4.248 2.016,-6.696 0,-2.952 -0.792,-5.328 -2.376,-7.056 -1.584,-1.728 -3.456,-3.096 -5.616,-3.96 -2.232,-0.864 -5.184,-1.728 -8.856,-2.664 -3.312,-0.792 -5.976,-1.584 -7.848,-2.304 -1.944,-0.72 -3.528,-1.728 -4.824,-3.096 -1.296,-1.296 -1.944,-3.096 -1.944,-5.4 0,-2.952 1.152,-5.4 3.6,-7.272 2.376,-1.872 5.904,-2.808 10.584,-2.808 2.304,0 4.68,0.36 7.128,1.08 2.448,0.72 4.68,1.8 6.696,3.168 l 1.368,-2.952 c -2.016,-1.368 -4.32,-2.448 -6.984,-3.312 -2.736,-0.792 -5.472,-1.224 -8.208,-1.224 -4.032,0 -7.344,0.648 -10.008,1.8 -2.664,1.224 -4.608,2.88 -5.904,4.896 -1.296,2.016 -1.944,4.248 -1.944,6.696 0,3.024 0.72,5.472 2.304,7.272 1.584,1.8 3.456,3.096 5.688,3.96 2.232,0.864 5.184,1.8 8.928,2.664 3.24,0.792 5.832,1.512 7.776,2.232 1.872,0.72 3.528,1.8 4.824,3.096 1.296,1.368 1.944,3.168 1.944,5.4 0,2.952 -1.224,5.328 -3.672,7.128 -2.448,1.872 -6.12,2.736 -10.872,2.736 -3.312,0 -6.48,-0.576 -9.504,-1.728 -3.024,-1.152 -5.4,-2.736 -7.128,-4.608 l -1.656,2.736 c 1.872,2.016 4.464,3.672 7.776,4.968 z"
         stroke-width="0px"
         stroke-linejoin="miter"
         stroke-miterlimit="2"
         fill="#dcd7ec"
         stroke="#dcd7ec"
         transform="matrix(0.77,0,0,0.77,138.44952,487.404)" /><path
         style="display:inline;fill:#7994a0;fill-opacity:1;stroke-width:0.591897"
         d="m 873.12177,297.80182 c -26.75571,-5.10276 -40.31062,-34.53609 -26.5859,-57.7292 14.68287,-24.81286 51.5793,-24.74807 66.29061,0.11626 16.44393,27.79299 -8.24222,63.61324 -39.70471,57.61281 z m 13.51885,-3.51137 c 19.19419,-3.8856 31.55548,-22.41946 27.66471,-41.47876 -5.5857,-27.36155 -39.48022,-37.72987 -59.31898,-18.14572 -25.0015,24.68081 -2.75239,66.58961 31.65427,59.62448 z m -11.44293,-24.71908 c -10.3727,-4.61055 -6.97291,-20.42635 4.39086,-20.42635 9.45355,0 14.31968,11.08033 7.87905,17.93999 -2.98806,3.18254 -8.2877,4.25641 -12.26991,2.48636 z m 9.1418,-3.76059 c 3.46015,-2.57244 3.80666,-8.29232 0.69059,-11.3953 -4.48181,-4.46318 -12.09643,-1.78559 -12.87268,4.52646 -0.79925,6.50226 6.86367,10.82302 12.18209,6.86884 z M 853.8338,247.94605 c -1.75193,-2.82277 11.9407,-15.82134 14.24677,-13.52441 1.04459,1.04066 0.61217,1.71599 -2.18011,3.40519 -2.56949,1.55434 -8.53907,7.81715 -9.08567,9.53206 -0.39899,1.25196 -2.3322,1.63277 -2.98099,0.58716 z"
         id="path33136"
         inkscape:label="path33136"
         transform="matrix(0.52940268,0,0,0.52940268,88.58143,330.57171)" /></g></g></svg>
